<svg version="1.1" id="Layer_1" xmlns="http://www.w3.org/2000/svg" xmlns:xlink="http://www.w3.org/1999/xlink" x="0px" y="0px"
	 width="100%" viewBox="0 0 500 200" enable-background="new 0 0 500 200" xml:space="preserve">
<path fill="#010101" opacity="1.000000" stroke="none" 
	d="
M315.000000,201.000000 
	C210.000015,201.000000 105.500038,201.000000 1.000042,201.000000 
	C1.000028,134.333359 1.000028,67.666725 1.000014,1.000069 
	C167.666611,1.000046 334.333221,1.000046 500.999878,1.000023 
	C500.999908,67.666595 500.999908,134.333191 500.999939,200.999893 
	C439.166656,201.000000 377.333344,201.000000 315.000000,201.000000 
M33.102058,121.499962 
	C33.102058,134.256577 33.102058,147.013199 33.102058,159.752136 
	C42.474586,159.752136 51.236084,159.752136 60.305706,159.752136 
	C60.305706,137.145203 60.305706,114.785408 60.305706,91.104713 
	C61.403114,93.245880 61.971458,94.183174 62.383522,95.184753 
	C67.689987,108.083130 73.062119,120.955833 78.196861,133.922470 
	C79.356972,136.852081 80.843742,138.031219 84.035400,137.802704 
	C88.178299,137.506088 92.399689,137.362015 96.512337,137.822189 
	C101.821266,138.416229 104.289268,136.456894 106.205963,131.379562 
	C111.150803,118.280632 116.879646,105.477661 122.295319,92.556465 
	C122.623260,92.617264 122.951202,92.678062 123.279144,92.738869 
	C123.279144,115.073074 123.279144,137.407288 123.279144,159.770721 
	C132.580734,159.770721 141.337952,159.770721 150.246292,159.770721 
	C150.246292,120.793938 150.246292,82.048492 150.246292,42.969036 
	C141.046982,42.969036 132.059586,43.302612 123.113480,42.839115 
	C118.058464,42.577213 115.680977,44.109596 113.804779,48.934746 
	C107.038628,66.335754 99.710129,83.518112 92.196022,101.748657 
	C84.060394,81.568130 76.278084,62.263988 68.629677,43.292015 
	C56.487900,43.292015 44.909771,43.292015 33.102058,43.292015 
	C33.102058,69.242828 33.102058,94.871391 33.102058,121.499962 
M446.731628,160.000168 
	C456.113251,160.000168 465.494904,160.000168 475.672180,160.000168 
	C465.902710,145.990005 456.700531,132.793396 447.524597,119.634430 
	C447.740234,119.383614 447.816711,119.222374 447.942322,119.159653 
	C449.275574,118.494095 450.605133,117.819313 451.957428,117.194000 
	C461.655975,112.709198 468.137451,105.373070 470.031036,94.844917 
	C471.136017,88.701210 471.537659,82.253502 471.056213,76.035439 
	C469.643005,57.783203 461.198425,47.295952 442.970367,45.233437 
	C421.926575,42.852322 400.594513,43.018696 379.150513,42.068386 
	C379.150513,82.119255 379.150513,120.844498 379.150513,159.617493 
	C388.850861,159.617493 398.368866,159.617493 408.266022,159.617493 
	C408.266022,146.985413 408.266022,134.734665 408.266022,122.770241 
	C414.351440,120.877419 417.676697,123.219292 420.598694,128.254349 
	C426.102478,137.738052 432.500092,146.698730 438.211426,156.068680 
	C440.114563,159.190918 442.240997,160.664764 446.731628,160.000168 
M215.103317,70.499962 
	C215.103317,100.246094 215.103317,129.992218 215.103317,159.714569 
	C225.099762,159.714569 234.508179,159.714569 244.277893,159.714569 
	C244.277893,144.345566 244.277893,129.259750 244.277893,114.110046 
	C258.037567,114.110046 271.428131,114.110046 285.194580,114.110046 
	C285.194580,129.463760 285.194580,144.541763 285.194580,159.769501 
	C294.977753,159.769501 304.381317,159.769501 313.917603,159.769501 
	C313.917603,120.818718 313.917603,82.099342 313.917603,43.197735 
	C304.315063,43.197735 294.915466,43.197735 285.071564,43.197735 
	C285.071564,57.985210 285.071564,72.553429 285.071564,87.225838 
	C271.213409,87.225838 257.801941,87.225838 243.969452,87.225838 
	C243.969452,72.358772 243.969452,57.787941 243.969452,43.281677 
	C234.146744,43.281677 224.750748,43.281677 215.103317,43.281677 
	C215.103317,52.227192 215.103317,60.863575 215.103317,70.499962 
M168.319809,131.499817 
	C168.319809,140.935959 168.319809,150.372101 168.319809,159.689392 
	C178.355225,159.689392 187.757401,159.689392 197.129318,159.689392 
	C197.129318,120.646690 197.129318,81.919975 197.129318,43.297100 
	C187.420853,43.297100 178.014801,43.297100 168.319824,43.297100 
	C168.319824,72.584724 168.319824,101.542267 168.319809,131.499817 
M332.167908,159.171066 
	C341.681091,159.171066 351.194244,159.171066 360.917236,159.171066 
	C360.917236,120.870033 360.917236,82.141861 360.917236,43.191864 
	C351.349701,43.191864 341.946594,43.191864 332.108582,43.191864 
	C332.108582,81.667976 332.108582,119.941666 332.167908,159.171066 
z"/>
<path fill="#FDFDFD" opacity="1.000000" stroke="none" 
	d="
M33.102058,120.999954 
	C33.102058,94.871391 33.102058,69.242828 33.102058,43.292015 
	C44.909771,43.292015 56.487900,43.292015 68.629677,43.292015 
	C76.278084,62.263988 84.060394,81.568130 92.196022,101.748657 
	C99.710129,83.518112 107.038628,66.335754 113.804779,48.934746 
	C115.680977,44.109596 118.058464,42.577213 123.113480,42.839115 
	C132.059586,43.302612 141.046982,42.969036 150.246292,42.969036 
	C150.246292,82.048492 150.246292,120.793938 150.246292,159.770721 
	C141.337952,159.770721 132.580734,159.770721 123.279144,159.770721 
	C123.279144,137.407288 123.279144,115.073074 123.279144,92.738869 
	C122.951202,92.678062 122.623260,92.617264 122.295319,92.556465 
	C116.879646,105.477661 111.150803,118.280632 106.205963,131.379562 
	C104.289268,136.456894 101.821266,138.416229 96.512337,137.822189 
	C92.399689,137.362015 88.178299,137.506088 84.035400,137.802704 
	C80.843742,138.031219 79.356972,136.852081 78.196861,133.922470 
	C73.062119,120.955833 67.689987,108.083130 62.383522,95.184753 
	C61.971458,94.183174 61.403114,93.245880 60.305706,91.104713 
	C60.305706,114.785408 60.305706,137.145203 60.305706,159.752136 
	C51.236084,159.752136 42.474586,159.752136 33.102058,159.752136 
	C33.102058,147.013199 33.102058,134.256577 33.102058,120.999954 
z"/>
<path fill="#FEFEFE" opacity="1.000000" stroke="none" 
	d="
M446.265594,160.000168 
	C442.240997,160.664764 440.114563,159.190918 438.211426,156.068680 
	C432.500092,146.698730 426.102478,137.738052 420.598694,128.254349 
	C417.676697,123.219292 414.351440,120.877419 408.266022,122.770241 
	C408.266022,134.734665 408.266022,146.985413 408.266022,159.617493 
	C398.368866,159.617493 388.850861,159.617493 379.150513,159.617493 
	C379.150513,120.844498 379.150513,82.119255 379.150513,42.068386 
	C400.594513,43.018696 421.926575,42.852322 442.970367,45.233437 
	C461.198425,47.295952 469.643005,57.783203 471.056213,76.035439 
	C471.537659,82.253502 471.136017,88.701210 470.031036,94.844917 
	C468.137451,105.373070 461.655975,112.709198 451.957428,117.194000 
	C450.605133,117.819313 449.275574,118.494095 447.942322,119.159653 
	C447.816711,119.222374 447.740234,119.383614 447.524597,119.634430 
	C456.700531,132.793396 465.902710,145.990005 475.672180,160.000168 
	C465.494904,160.000168 456.113251,160.000168 446.265594,160.000168 
M437.661255,95.267250 
	C442.921600,90.073006 443.007080,83.670280 441.290039,77.225945 
	C439.616943,70.946579 433.996094,69.894173 428.620728,69.596153 
	C421.891510,69.223068 415.125854,69.506424 408.165222,69.506424 
	C408.165222,79.197456 408.165222,88.891754 408.165222,99.000893 
	C418.024872,98.416000 427.908447,100.704094 437.661255,95.267250 
z"/>
<path fill="#FDFDFD" opacity="1.000000" stroke="none" 
	d="
M215.103317,69.999954 
	C215.103317,60.863575 215.103317,52.227192 215.103317,43.281677 
	C224.750748,43.281677 234.146744,43.281677 243.969452,43.281677 
	C243.969452,57.787941 243.969452,72.358772 243.969452,87.225838 
	C257.801941,87.225838 271.213409,87.225838 285.071564,87.225838 
	C285.071564,72.553429 285.071564,57.985210 285.071564,43.197735 
	C294.915466,43.197735 304.315063,43.197735 313.917603,43.197735 
	C313.917603,82.099342 313.917603,120.818718 313.917603,159.769501 
	C304.381317,159.769501 294.977753,159.769501 285.194580,159.769501 
	C285.194580,144.541763 285.194580,129.463760 285.194580,114.110046 
	C271.428131,114.110046 258.037567,114.110046 244.277893,114.110046 
	C244.277893,129.259750 244.277893,144.345566 244.277893,159.714569 
	C234.508179,159.714569 225.099762,159.714569 215.103317,159.714569 
	C215.103317,129.992218 215.103317,100.246094 215.103317,69.999954 
z"/>
<path fill="#FCFCFC" opacity="1.000000" stroke="none" 
	d="
M168.319824,130.999817 
	C168.319824,101.542267 168.319824,72.584724 168.319824,43.297100 
	C178.014801,43.297100 187.420853,43.297100 197.129318,43.297100 
	C197.129318,81.919975 197.129318,120.646690 197.129318,159.689392 
	C187.757401,159.689392 178.355225,159.689392 168.319809,159.689392 
	C168.319809,150.372101 168.319809,140.935959 168.319824,130.999817 
z"/>
<path fill="#FDFDFD" opacity="1.000000" stroke="none" 
	d="
M332.138245,158.693207 
	C332.108582,119.941666 332.108582,81.667976 332.108582,43.191864 
	C341.946594,43.191864 351.349701,43.191864 360.917236,43.191864 
	C360.917236,82.141861 360.917236,120.870033 360.917236,159.171066 
	C351.194244,159.171066 341.681091,159.171066 332.138245,158.693207 
z"/>
<path fill="#030303" opacity="1.000000" stroke="none" 
	d="
M437.369781,95.511566 
	C427.908447,100.704094 418.024872,98.416000 408.165222,99.000893 
	C408.165222,88.891754 408.165222,79.197456 408.165222,69.506424 
	C415.125854,69.506424 421.891510,69.223068 428.620728,69.596153 
	C433.996094,69.894173 439.616943,70.946579 441.290039,77.225945 
	C443.007080,83.670280 442.921600,90.073006 437.369781,95.511566 
z"/>
</svg>